<?xml version="1.0" encoding="UTF-8"?>
<svg width="13px" height="19px" viewBox="0 0 13 19" version="1.1" xmlns="http://www.w3.org/2000/svg" xmlns:xlink="http://www.w3.org/1999/xlink">
    <!-- Generator: Sketch 51 (57462) - http://www.bohemiancoding.com/sketch -->
    <title></title>
    <desc>Created with Sketch.</desc>
    <defs></defs>
    <g id="Page-1" stroke="none" stroke-width="1" fill="none" fill-rule="evenodd">
        <g id="actual-copy" transform="translate(-222.000000, -1383.000000)" fill="#FFFFFF">
            <g id="Group-5" transform="translate(160.000000, 1054.000000)">
                <g id="Group-4" transform="translate(34.000000, 309.000000)">
                    <g id="Group-2-Copy">
                        <path d="M28.499994,37.7812481 L28.499994,21.2187876 C28.499994,21.0885798 28.545567,20.9779026 28.6367125,20.8867572 C28.7278579,20.7956117 28.8385351,20.7500387 28.9687429,20.7500387 L30.8437385,20.7500387 C30.9739463,20.7500387 31.0846235,20.7956117 31.1757689,20.8867572 C31.2669143,20.9779026 31.3124873,21.0885798 31.3124873,21.2187876 L31.3124873,28.0937712 L38.9687191,21.0234756 C39.2030935,20.815143 39.483041,20.7239969 39.8085608,20.7500387 C40.1340807,20.7760805 40.4140281,20.9062884 40.6484026,21.1406628 C40.882777,21.3750373 40.9999642,21.6614947 40.9999642,22.0000358 L40.9999642,37 C40.9999642,37.3385411 40.882777,37.6249985 40.6484026,37.859373 C40.4140281,38.0937474 40.1340807,38.2239552 39.8085608,38.249997 C39.483041,38.2760388 39.2030935,38.1848928 38.9687191,37.9765602 L31.3124873,30.9453269 L31.3124873,37.7812481 C31.3124873,37.911456 31.2669143,38.0221332 31.1757689,38.1132786 C31.0846235,38.204424 30.9739463,38.249997 30.8437385,38.249997 L28.9687429,38.249997 C28.8385351,38.249997 28.7278579,38.204424 28.6367125,38.1132786 C28.545567,38.0221332 28.499994,37.911456 28.499994,37.7812481 Z" id=""></path>
                    </g>
                </g>
            </g>
        </g>
    </g>
</svg>