<?xml version="1.0" encoding="UTF-8"?>
<svg width="13px" height="19px" viewBox="0 0 13 19" version="1.1" xmlns="http://www.w3.org/2000/svg" xmlns:xlink="http://www.w3.org/1999/xlink">
    <!-- Generator: Sketch 51 (57462) - http://www.bohemiancoding.com/sketch -->
    <title></title>
    <desc>Created with Sketch.</desc>
    <defs></defs>
    <g id="Page-1" stroke="none" stroke-width="1" fill="none" fill-rule="evenodd">
        <g id="actual-copy" transform="translate(-404.000000, -1383.000000)" fill="#FFFFFF">
            <g id="Group-5" transform="translate(160.000000, 1054.000000)">
                <g id="Group-4" transform="translate(34.000000, 309.000000)">
                    <g id="Group-2" transform="translate(182.000000, 0.000000)">
                        <path d="M40.9999642,21.2187876 L40.9999642,37.7812481 C40.9999642,37.911456 40.9543912,38.0221332 40.8632458,38.1132786 C40.7721004,38.204424 40.6614232,38.249997 40.5312154,38.249997 L38.6562198,38.249997 C38.526012,38.249997 38.4153348,38.204424 38.3241894,38.1132786 C38.2330439,38.0221332 38.1874709,37.911456 38.1874709,37.7812481 L38.1874709,30.9062645 L30.5703016,37.9765602 C30.3098854,38.1848928 30.0169173,38.2760388 29.6913974,38.249997 C29.3658776,38.2239552 29.0859301,38.0937474 28.8515557,37.859373 C28.6171813,37.6249985 28.499994,37.3385411 28.499994,37 L28.499994,22.0000358 C28.499994,21.6614947 28.6171813,21.3750373 28.8515557,21.1406628 C29.0859301,20.9062884 29.3658776,20.7760805 29.6913974,20.7500387 C30.0169173,20.7239969 30.3098854,20.815143 30.5703016,21.0234756 L38.1874709,28.0547088 L38.1874709,21.2187876 C38.1874709,21.0885798 38.2330439,20.9779026 38.3241894,20.8867572 C38.4153348,20.7956117 38.526012,20.7500387 38.6562198,20.7500387 L40.5312154,20.7500387 C40.6614232,20.7500387 40.7721004,20.7956117 40.8632458,20.8867572 C40.9543912,20.9779026 40.9999642,21.0885798 40.9999642,21.2187876 Z" id=""></path>
                    </g>
                </g>
            </g>
        </g>
    </g>
</svg>