<?xml version="1.0" encoding="UTF-8"?>
<svg width="16px" height="18px" viewBox="0 0 16 18" version="1.1" xmlns="http://www.w3.org/2000/svg" xmlns:xlink="http://www.w3.org/1999/xlink">
    <!-- Generator: Sketch 51 (57462) - http://www.bohemiancoding.com/sketch -->
    <title></title>
    <desc>Created with Sketch.</desc>
    <defs></defs>
    <g id="Page-1" stroke="none" stroke-width="1" fill="none" fill-rule="evenodd">
        <g id="actual-copy" transform="translate(-314.000000, -1382.000000)" fill="#FFFFFF">
            <g id="Group-5" transform="translate(107.000000, 1054.000000)">
                <g id="Group-4" transform="translate(87.000000, 309.000000)">
                    <g id="Group-3" transform="translate(91.000000, 0.000000)">
                        <path d="M43.5632071,26.8556299 C43.9281462,27.060908 44.1733391,27.3460164 44.2987871,27.7109554 C44.424235,28.0758944 44.424235,28.440833 44.2987871,28.805772 C44.1733391,29.170711 43.9281462,29.4558194 43.5632071,29.6610975 L31.5202245,36.7774054 C31.1780943,36.9826835 30.8131553,37.0511096 30.4254079,36.9826835 C30.0376605,36.9142575 29.7126368,36.7317882 29.4503369,36.4352752 C29.1880369,36.1387622 29.0568871,35.7852279 29.0568871,35.3746716 L29.0568871,21.1420558 C29.0568871,20.6858824 29.1937392,20.315241 29.4674434,20.0301327 C29.7411475,19.7450243 30.0718735,19.5739593 30.4596209,19.5169374 C30.8473683,19.4599155 31.2009032,19.5340439 31.5202245,19.739322 L43.5632071,26.8556299 Z" id=""></path>
                    </g>
                </g>
            </g>
        </g>
    </g>
</svg>